PathFileType	4	(X/Y/Z)	62_2_10_p0_0-1293_filt_butterworth.trc
DataRate	CameraRate	NumFrames	NumMarkers	Units	OrigDataRate	OrigDataStartFrame	OrigNumFrames
59.0	59.0	5	27	m	59.0	0	1293
Frame#	Time	RHip			RKnee			RAnkle			RBigToe			RSmallToe			RHeel			LHip			LKnee			LAnkle			LBigToe			LSmallToe			LHeel			Neck			Head			Nose			RShoulder			RElbow			RWrist			RThumb			RIndex			RPinky			LShoulder			LElbow			LWrist			LThumb			LIndex			LPinky			
		X1	Y1	Z1	X2	Y2	Z2	X3	Y3	Z3	X4	Y4	Z4	X5	Y5	Z5	X6	Y6	Z6	X7	Y7	Z7	X8	Y8	Z8	X9	Y9	Z9	X10	Y10	Z10	X11	Y11	Z11	X12	Y12	Z12	X13	Y13	Z13	X14	Y14	Z14	X15	Y15	Z15	X16	Y16	Z16	X17	Y17	Z17	X18	Y18	Z18	X19	Y19	Z19	X20	Y20	Z20	X21	Y21	Z21	X22	Y22	Z22	X23	Y23	Z23	X24	Y24	Z24	X25	Y25	Z25	X26	Y26	Z26	X27	Y27	Z27	
0	0.0	0.34513199347989426	0.5089126174290189	0.2575121328801501	0.3437594834272249	0.7720446400950566	0.5678096503007924	0.3402413985417401	1.0350205646728852	0.8575946612778482	0.309443005583284	0.9378846727652499	0.9418102562730792	0.36723337024074115	0.9594859931541992	0.9338692767268724	0.33358846248916707	1.1565042789841917	0.8578501006584103	0.13501909257588102	0.5337792399648912	0.2272546147677858	0.14408489985873302	0.8203017448453597	0.5428861554027141	0.14585997617238608	1.0632978275716904	0.8382456933619511	0.12585899026302083	0.9079005515330958	0.9266438404942249	0.08611974132085204	0.9669894682662027	0.8956718702149793	0.16682772048744704	1.1069469571709092	0.8489495824265401	0.23271945747478184	0.11095385668179192	-0.20056159767291032	0.2245290301387003	-0.04352246413167246	-0.3833009266264552	0.2204934384754788	-0.019598349304478322	-0.24677150433631173	0.37526181898281974	0.1356994088481981	-0.1176791658710146	0.4731816795517184	0.1636080238030532	0.14836506648769748	0.27370160727278536	0.25424169021397375	0.24047680190813228	0.15976209310291828	0.21455171273929755	0.27396041317636105	0.14544929030718476	0.26003892101645876	0.29149707003391934	0.17384369394383972	0.2860875265810888	0.30388337157157796	0.06066521639243468	0.18159072176399663	-0.17401897475529465	0.001983715875795351	0.282852452894501	0.046737373765389494	0.12985846821982486	0.234261888692971	0.23089002238781967	0.2046427810362369	0.20451052498435612	0.2791919690853293	0.21135357601441612	0.22943736444960122	0.3048312119523787	0.19368703761784165	0.2904871699271533	0.3008531012274727
1	0.0169491525423728	0.34544671481309086	0.5104339290320019	0.25997621430114304	0.3445145297711812	0.7744402899098347	0.5700374484930727	0.34328129322489614	1.0352619684032898	0.8577620578909629	0.3089119794850885	0.9398927148220548	0.9441171868336155	0.3673777097391767	0.9595819489825236	0.9338064741264775	0.33596102104966447	1.1540612909222565	0.8560461557113846	0.13506013476527862	0.5335993936391024	0.22743935509056062	0.14411169719544728	0.8211981304879967	0.5453675923137399	0.14543466372835992	1.0653384663282177	0.840159808982297	0.1266873303049602	0.9103649137441515	0.9288268892399147	0.0873074973626971	0.9568028709556566	0.8980052525938703	0.16830568116229258	1.1079047174307473	0.8492287421978739	0.23254212215480732	0.10942834015503826	-0.2021561460952964	0.22458294741171184	-0.04345671545640058	-0.3833622437833782	0.21858330266179365	-0.02395038377534068	-0.24656926743767094	0.373037287751527	0.13243344541835367	-0.11591799808246231	0.4731478981995292	0.16337434589731845	0.1475155806569337	0.2737961776403871	0.25404655039650087	0.2407344308457221	0.16066119843649343	0.23151796984656145	0.2651782337000447	0.14627587292024352	0.2702958698315287	0.2850098700650875	0.17731146093027167	0.2908482064576178	0.30220787625283285	0.06344170797963783	0.18797891853656734	-0.1749960357807659	0.0003544568333418176	0.27945023038989586	0.048046221343373934	0.13010836328709607	0.23435645480844286	0.23078027601678322	0.19569595407922025	0.1980157321666684	0.2735282746112397	0.20298376161053774	0.2346485375751166	0.30137321092697283	0.19501221332278035	0.3035194180431385	0.29817249352674735
2	0.0338983050847457	0.34581778435596716	0.5119651657110162	0.26200524509224593	0.34495412824537014	0.7760807180501595	0.5715962796256843	0.34514490497686195	1.035432915467558	0.8578667148355354	0.3086386487622045	0.9411461968105662	0.9454901512111429	0.3674856754263574	0.9596156010414792	0.933710845191486	0.33741506590732506	1.152907063529546	0.8552437524104768	0.1350705150476488	0.5334574577698613	0.22754777619187874	0.14413598496436417	0.821787311123895	0.5469326930173329	0.14519383815975076	1.0664572051560963	0.8406755646305509	0.127144575087546	0.911866083828365	0.9302057358507467	0.08802446715842273	0.9505100997967493	0.8992379244751286	0.1684892513938499	1.108122050973433	0.8493727447992622	0.23186702273018647	0.10758707794369257	-0.20254952362604223	0.22467765759359867	-0.04333177172329199	-0.383459250687747	0.21724608415919658	-0.026996121219271058	-0.2461593364973927	0.3709456080229087	0.12955081615577838	-0.11421327859240987	0.47316329809366997	0.16340527849202666	0.14742563428063418	0.2738876550713389	0.25404327860970116	0.24084978799550538	0.1625784388116649	0.24702112454538597	0.2565295796737448	0.14724184136718269	0.2794354903070239	0.2792507143669277	0.1789865832868634	0.2958796072589727	0.3004011599608698	0.06411855813997164	0.18975327622041402	-0.17488404721771075	-0.0007625939313017765	0.2766636314611496	0.048490625379681074	0.13007405582852452	0.23469535843296302	0.23058323925396917	0.19053963901919638	0.19620795976143132	0.2687053850338061	0.197742276203547	0.23725040061144118	0.2985612108045179	0.19589006048803095	0.3126009304699031	0.2962135736329882
3	0.0508474576271186	0.34619312502654415	0.5133335729012342	0.2634139815515005	0.34504470280297234	0.7769554029312815	0.5727455791778903	0.34559190567989584	1.035472840292129	0.8578974526423185	0.3086983099399795	0.9416048620759014	0.9458925174294145	0.3674628103671056	0.9594484911843029	0.9336514922763153	0.33766418536060444	1.1532636039105233	0.8555952878434069	0.13505948599329992	0.5333687222990939	0.2276024506861198	0.14415738062552874	0.822014715412037	0.5475356549392739	0.1451432074807099	1.0665327670152578	0.83988088810989	0.12711752509530497	0.9122041759525338	0.9306133152726136	0.0881784359983346	0.9487876669690503	0.8990944586529737	0.16777894758370568	1.1078377956919694	0.8493913297501294	0.23036628115771196	0.10492236591284472	-0.20139300063382182	0.22465552919187734	-0.04338617904780049	-0.3834215456137947	0.21610535982724427	-0.028930412218383446	-0.24532449469206777	0.3695606476636007	0.12762331317168385	-0.11275045595692922	0.4732139997626962	0.1635786050453169	0.14788698731560904	0.27394348047589356	0.2550114727085287	0.2405010415406831	0.16494597575866954	0.2597231527004144	0.24893335868543537	0.14800889574789988	0.28617219000568417	0.2750381604404779	0.17863677235397643	0.3016151923083287	0.29829227900125255	0.06283919490880865	0.18707495008431974	-0.17415363611682352	-0.0015424545923096505	0.2742163114707697	0.04836042134388165	0.12917219610753783	0.23537849331424038	0.23024224877368296	0.18992384197069231	0.19942493615025925	0.2648855471300571	0.19652814153573128	0.23731157219253224	0.2962303477450456	0.19630529801609015	0.3163434510102853	0.294821526854427
4	0.0677966101694915	0.34645262315765246	0.5142024805531578	0.2641577100235024	0.3449608838408265	0.7774089122571515	0.5741585385847081	0.34489760002673275	1.0353196624239869	0.8578835465880126	0.30904153422183533	0.9416398888208719	0.9458788324964407	0.36724428355011546	0.9590363755613839	0.9337460489509575	0.33681362695444184	1.1542241778669171	0.8565235489687454	0.13504717919086426	0.5333445137793615	0.22763330385730923	0.14417192665320488	0.8220157459507601	0.5476627657701267	0.14517564436899089	1.0661035517956323	0.8388851767030734	0.12672316650962062	0.911631750188454	0.9301363434568011	0.087900609007216	0.9507314395282186	0.8981898583714955	0.16719965180315927	1.1076534140980163	0.8493881555916225	0.2284328869954615	0.10179224108001847	-0.19947937825247766	0.22409293092355617	-0.04426364009052096	-0.382778752857358	0.21456452132766263	-0.030005567512445687	-0.24447838185752105	0.3691379496327952	0.1259618269583027	-0.11125202131586101	0.4732655082563686	0.16397945353724316	0.14828631436646586	0.273928463621522	0.25800546607562935	0.2393050664033369	0.16655280738253753	0.26805470062579634	0.2432846719923644	0.1483196895268855	0.28968415019804317	0.2729660718428677	0.17745571645246488	0.3093133080544491	0.29532805515631494	0.061280196729178546	0.1836301690823749	-0.17393657842509963	-0.002124813358819764	0.272300333135508	0.04820904001717689	0.12685574135817948	0.2361908613353919	0.22983754945897292	0.19165108065377903	0.2051598657435385	0.2614962253138657	0.1977292977784728	0.23669282895143207	0.29378748460742693	0.1964118959105409	0.31642777735767347	0.29339358885772565
